<?xml version="1.0" standalone="no"?>
<!DOCTYPE svg PUBLIC "-//W3C//DTD SVG 20010904//EN"
 "http://www.w3.org/TR/2001/REC-SVG-20010904/DTD/svg10.dtd">
<svg version="1.0" xmlns="http://www.w3.org/2000/svg"
 width="133.000000pt" height="133.000000pt" viewBox="0 0 133.000000 133.000000"
 preserveAspectRatio="xMidYMid meet">

<g transform="translate(0.000000,133.000000) scale(0.100000,-0.100000)"
fill="#000000" stroke="none">
<path d="M633 1323 c15 -2 39 -2 55 0 15 2 2 4 -28 4 -30 0 -43 -2 -27 -4z"/>
<path d="M563 1030 c-32 -13 -46 -46 -58 -135 l-10 -80 -53 -3 c-62 -4 -66 -9
-76 -122 -4 -41 -13 -145 -21 -230 -14 -145 -14 -156 2 -168 24 -17 612 -17
636 1 16 11 16 22 2 167 -8 85 -17 189 -21 230 -10 113 -14 118 -76 122 l-53
3 -10 80 c-12 92 -26 122 -61 135 -31 12 -171 12 -201 0z m182 -30 c31 -12 40
-35 49 -122 l7 -68 -136 0 -136 0 7 68 c9 85 18 110 46 122 31 12 131 12 163
0z"/>
<path d="M633 3 c15 -2 39 -2 55 0 15 2 2 4 -28 4 -30 0 -43 -2 -27 -4z"/>
</g>
</svg>
